<?xml version="1.0" encoding="UTF-8"?>
<svg width="195px" height="50px" viewBox="0 0 195 50" version="1.1" xmlns="http://www.w3.org/2000/svg" xmlns:xlink="http://www.w3.org/1999/xlink">
    <!-- Generator: Sketch 55.2 (78181) - https://sketchapp.com -->
    <title>logo</title>
    <desc>Created with Sketch.</desc>
    <defs>
        <path d="M1.8044661,43 L1.8044661,39.76 L3.1244661,39.64 C3.8978033,39.5599996 4.2844661,39.18667 4.2844661,38.52 L4.2844661,19.92 L2.0044661,19.8 L2.0044661,16.4 L13.4444661,16.4 C16.4311477,16.4 18.7577911,17.099993 20.4244661,18.5 C22.0911411,19.9 22.9244661,21.999986 22.9244661,24.8 C22.9244661,27.600014 21.9778089,29.7799922 20.0844661,31.34 C18.1911233,32.9 15.6844817,33.68 12.5644661,33.68 L9.1644661,33.68 L9.1644661,39.48 L13.0044661,39.6 L13.0044661,43 L1.8044661,43 Z M9.1644661,29.8 L12.0444661,29.8 C15.9378189,29.8 17.8844661,28.2133492 17.8844661,25.04 C17.8844661,23.1199904 17.3844711,21.8466698 16.3844661,21.22 C15.3844611,20.5933302 13.7911437,20.28 11.6044661,20.28 L9.1644661,20.28 L9.1644661,29.8 Z M44.4044661,43 L25.4044661,43 L25.4044661,39.76 L26.7244661,39.64 C27.4978033,39.5599996 27.8844661,39.18667 27.8844661,38.52 L27.8844661,19.92 L25.6044661,19.8 L25.6044661,16.4 L35.2444661,16.4 L35.2444661,19.64 L33.9244661,19.76 C33.1511289,19.8400004 32.7644661,20.2666628 32.7644661,21.04 L32.7644661,38.88 L39.4044661,38.88 C39.7778013,38.88 40.0244655,38.780001 40.1444661,38.58 C40.2644667,38.379999 40.3244661,38.0533356 40.3244661,37.6 L40.3244661,34.8 L44.4044661,35.08 L44.4044661,43 Z M48.3244661,38.52 L54.7644661,19.88 L52.2444661,19.64 L52.2444661,16.4 L61.4044661,16.4 L69.5644661,39.48 L69.6044661,39.48 L71.8844661,39.6 L71.8844661,43 L61.5644661,43 L61.5644661,39.76 L63.0844661,39.64 C63.5378017,39.5866664 63.8444653,39.4800008 64.0044661,39.32 C64.1644669,39.1599992 64.1778001,38.8666688 64.0444661,38.44 L63.2044661,35.96 L53.8444661,35.96 L52.6444661,39.48 L55.0444661,39.6 L55.0444661,43 L45.8044661,43 L45.8044661,39.76 L47.1244661,39.64 C47.6844689,39.5866664 48.0844649,39.2133368 48.3244661,38.52 Z M58.5244661,20.88 L54.8044661,32.28 L62.2444661,32.28 L58.6444661,20.88 L58.5244661,20.88 Z M78.0044661,38.52 L78.0044661,20.36 L74.8844661,20.36 C74.2711297,20.36 73.9644661,20.7733292 73.9644661,21.6 L73.9644661,23.48 L69.8844661,23.2 L69.8844661,16.4 L90.8044661,16.4 L90.8044661,23.2 L86.7244661,23.48 L86.7244661,21.6 C86.7244661,21.1466644 86.6578001,20.8266676 86.5244661,20.64 C86.3911321,20.4533324 86.0711353,20.36 85.5644661,20.36 L82.8444661,20.36 L82.8444661,39.48 L86.0044661,39.6 L86.0044661,43 L74.7244661,43 L74.7244661,39.76 L76.8444661,39.64 C77.6178033,39.5599996 78.0044661,39.18667 78.0044661,38.52 Z M100.124466,38.52 L100.124466,20.36 L97.0044661,20.36 C96.3911297,20.36 96.0844661,20.7733292 96.0844661,21.6 L96.0844661,23.48 L92.0044661,23.2 L92.0044661,16.4 L112.924466,16.4 L112.924466,23.2 L108.844466,23.48 L108.844466,21.6 C108.844466,21.1466644 108.7778,20.8266676 108.644466,20.64 C108.511132,20.4533324 108.191135,20.36 107.684466,20.36 L104.964466,20.36 L104.964466,39.48 L108.124466,39.6 L108.124466,43 L96.8444661,43 L96.8444661,39.76 L98.9644661,39.64 C99.7378033,39.5599996 100.124466,39.18667 100.124466,38.52 Z M133.884466,43 L114.884466,43 L114.884466,39.76 L116.204466,39.64 C116.977803,39.5599996 117.364466,39.18667 117.364466,38.52 L117.364466,19.92 L115.084466,19.8 L115.084466,16.4 L133.404466,16.4 L133.404466,23.04 L129.324466,23.32 L129.324466,21.72 C129.324466,21.2666644 129.2578,20.9466676 129.124466,20.76 C128.991132,20.5733324 128.671135,20.48 128.164466,20.48 L122.244466,20.48 L122.244466,27.32 L131.484466,27.32 L131.484466,31.4 L122.244466,31.4 L122.244466,38.88 L128.684466,38.88 C129.164469,38.88 129.471132,38.780001 129.604466,38.58 C129.7378,38.379999 129.804466,38.0533356 129.804466,37.6 L129.804466,35.6 L133.884466,35.88 L133.884466,43 Z M136.764466,43 L136.764466,39.76 L138.084466,39.64 C138.857803,39.5599996 139.244466,39.18667 139.244466,38.52 L139.244466,19.92 L136.964466,19.8 L136.964466,16.4 L147.884466,16.4 C150.977815,16.4 153.351125,16.9733276 155.004466,18.12 C156.657808,19.2666724 157.484466,21.1466536 157.484466,23.76 C157.484466,25.5733424 157.011138,27.0666608 156.064466,28.24 C155.117795,29.4133392 153.991139,30.266664 152.684466,30.8 C153.644471,31.1466684 154.404463,31.9599936 154.964466,33.24 L157.844466,39.52 L160.124466,39.6 L160.124466,43 L150.244466,43 L150.244466,39.76 L151.404466,39.64 C152.017803,39.5599996 152.324466,39.320002 152.324466,38.92 C152.324466,38.7599992 152.271133,38.5733344 152.164466,38.36 L150.284466,34.36 C149.991131,33.69333 149.664468,33.2200014 149.304466,32.94 C148.944464,32.6599986 148.431136,32.52 147.764466,32.52 L144.124466,32.52 L144.124466,39.48 L146.724466,39.6 L146.724466,43 L136.764466,43 Z M144.124466,28.72 L147.604466,28.72 C150.884483,28.72 152.524466,27.253348 152.524466,24.32 C152.524466,22.6399916 152.091137,21.5466692 151.224466,21.04 C150.357795,20.5333308 148.964476,20.28 147.044466,20.28 L144.124466,20.28 L144.124466,28.72 Z M170.164466,39.4 C173.364482,39.4 174.964466,38.1200128 174.964466,35.56 C174.964466,34.22666 174.257807,33.2400032 172.844466,32.6 C172.097796,32.2266648 171.131139,31.8800016 169.944466,31.56 C168.757793,31.2399984 167.771137,30.913335 166.984466,30.58 C166.197796,30.246665 165.40447,29.7866696 164.604466,29.2 C163.031125,28.0266608 162.244466,26.2200122 162.244466,23.78 C162.244466,21.3399878 163.091124,19.42 164.784466,18.02 C166.477808,16.619993 168.691119,15.92 171.424466,15.92 C174.157813,15.92 176.697788,16.4666612 179.044466,17.56 L179.044466,23.56 L174.964466,23.84 L174.964466,21.52 C174.964466,21.119998 174.911133,20.8266676 174.804466,20.64 C174.511131,20.1333308 173.571141,19.88 171.984466,19.88 C170.397792,19.88 169.22447,20.1599972 168.464466,20.72 C167.704462,21.2800028 167.324466,22.1466608 167.324466,23.32 C167.324466,24.1733376 167.644463,24.92 168.284466,25.56 C168.711135,25.9866688 169.344462,26.3399986 170.184466,26.62 C171.02447,26.9000014 171.917795,27.1866652 172.864466,27.48 C173.811138,27.7733348 174.651129,28.0933316 175.384466,28.44 C176.117803,28.7866684 176.884462,29.2666636 177.684466,29.88 C179.311141,31.080006 180.124466,32.9333208 180.124466,35.44 C180.124466,37.9466792 179.224475,39.92 177.424466,41.36 C175.624457,42.8000072 173.251148,43.52 170.304466,43.52 C167.357785,43.52 164.711145,42.9733388 162.364466,41.88 L162.364466,35.56 L166.444466,35.28 L166.444466,37.72 C166.444466,38.120002 166.497799,38.4133324 166.604466,38.6 C166.711133,38.7866676 167.037797,38.9666658 167.584466,39.14 C168.131135,39.3133342 168.991127,39.4 170.164466,39.4 Z" id="path-1"></path>
    </defs>
    <g id="Page-1" stroke="none" stroke-width="1" fill="none" fill-rule="evenodd">
        <g id="logo" transform="translate(0.000000, -5.000000)" fill-rule="nonzero">
            <rect id="Rectangle" fill="#AF0B0B" transform="translate(25.035534, 30.035534) rotate(45.000000) translate(-25.035534, -30.035534) " x="7.53553407" y="12.5355339" width="35" height="35"></rect>
            <g id="PLATTERS" transform="translate(14.535534, 0.000000)">
                <g>
                    <use fill="#000000" xlink:href="#path-1"></use>
                    <use fill="#FFFFFF" xlink:href="#path-1"></use>
                </g>
            </g>
        </g>
    </g>
</svg>